<?xml version="1.0" encoding="UTF-8" standalone="no"?>
<!DOCTYPE svg PUBLIC "-//W3C//DTD SVG 1.1//EN"
 "http://www.w3.org/Graphics/SVG/1.1/DTD/svg11.dtd">
<!-- Generated by graphviz version 12.2.1 (0)
 -->
<!-- Title: G Pages: 1 -->
<svg width="411pt" height="657pt"
 viewBox="0.00 0.00 411.05 657.00" xmlns="http://www.w3.org/2000/svg" xmlns:xlink="http://www.w3.org/1999/xlink">
<g id="graph0" class="graph" transform="scale(1 1) rotate(0) translate(4 653)">
<title>G</title><style>.edge>path:hover{stroke-width:8}</style>
<polygon fill="white" stroke="none" points="-4,4 -4,-653 407.05,-653 407.05,4 -4,4"/>
<!-- app_py -->
<g id="node1" class="node">
<title>app_py</title><style>.edge>path:hover{stroke-width:8}</style>
<ellipse fill="#a65959" stroke="black" cx="181.38" cy="-18" rx="29.98" ry="18"/>
<text text-anchor="middle" x="181.38" y="-14.88" font-family="Helvetica,sans-Serif" font-size="10.00" fill="#ffffff">app.py</text>
</g>
<!-- flask -->
<g id="node2" class="node">
<title>flask</title><style>.edge>path:hover{stroke-width:8}</style>
<polygon fill="blue" stroke="black" points="208.38,-145 154.38,-145 154.38,-109 208.38,-109 208.38,-145"/>
<text text-anchor="middle" x="181.38" y="-123.88" font-family="Helvetica,sans-Serif" font-size="10.00" fill="white">flask</text>
</g>
<!-- flask&#45;&gt;app_py -->
<g id="edge1" class="edge">
<title>flask&#45;&gt;app_py</title><style>.edge>path:hover{stroke-width:8}</style>
<path fill="none" stroke="black" d="M181.38,-108.81C181.38,-92.27 181.38,-66.98 181.38,-47.44"/>
<polygon fill="blue" stroke="black" points="184.88,-47.66 181.38,-37.66 177.88,-47.66 184.88,-47.66"/>
</g>
<!-- flask_app -->
<g id="node3" class="node">
<title>flask_app</title><style>.edge>path:hover{stroke-width:8}</style>
<polygon fill="blue" stroke="black" points="226.5,-577 166.25,-577 166.25,-541 226.5,-541 226.5,-577"/>
<text text-anchor="middle" x="196.38" y="-555.88" font-family="Helvetica,sans-Serif" font-size="10.00" fill="white">flask.app</text>
</g>
<!-- flask_app&#45;&gt;flask -->
<g id="edge2" class="edge">
<title>flask_app&#45;&gt;flask</title><style>.edge>path:hover{stroke-width:8}</style>
<path fill="none" stroke="black" d="M182.05,-540.64C143.69,-492.82 39.23,-353.67 5.38,-217 1.53,-201.47 -4.17,-193.84 5.38,-181 36.89,-138.6 101.25,-128.87 142.79,-127.29"/>
<polygon fill="blue" stroke="black" points="142.68,-130.8 152.6,-127.08 142.53,-123.8 142.68,-130.8"/>
</g>
<!-- flask_ctx -->
<g id="node6" class="node">
<title>flask_ctx</title><style>.edge>path:hover{stroke-width:8}</style>
<polygon fill="blue" stroke="black" points="365,-505 307.75,-505 307.75,-469 365,-469 365,-505"/>
<text text-anchor="middle" x="336.38" y="-483.88" font-family="Helvetica,sans-Serif" font-size="10.00" fill="white">flask.ctx</text>
</g>
<!-- flask_app&#45;&gt;flask_ctx -->
<g id="edge3" class="edge">
<title>flask_app&#45;&gt;flask_ctx</title><style>.edge>path:hover{stroke-width:8}</style>
<path fill="none" stroke="black" d="M236.75,-537.81C255.84,-528.27 278.53,-516.93 297.43,-507.47"/>
<polygon fill="blue" stroke="black" points="235.49,-534.53 228.11,-542.13 238.62,-540.79 235.49,-534.53"/>
<polygon fill="blue" stroke="black" points="298.76,-510.72 306.14,-503.12 295.63,-504.46 298.76,-510.72"/>
</g>
<!-- flask_globals -->
<g id="node7" class="node">
<title>flask_globals</title><style>.edge>path:hover{stroke-width:8}</style>
<polygon fill="blue" stroke="black" points="276.13,-433 198.63,-433 198.63,-397 276.13,-397 276.13,-433"/>
<text text-anchor="middle" x="237.38" y="-411.88" font-family="Helvetica,sans-Serif" font-size="10.00" fill="white">flask.globals</text>
</g>
<!-- flask_app&#45;&gt;flask_globals -->
<g id="edge4" class="edge">
<title>flask_app&#45;&gt;flask_globals</title><style>.edge>path:hover{stroke-width:8}</style>
<path fill="none" stroke="black" d="M204.58,-529.6C211.77,-504.7 222.16,-468.71 229.31,-443.94"/>
<polygon fill="blue" stroke="black" points="201.24,-528.56 201.83,-539.13 207.96,-530.5 201.24,-528.56"/>
<polygon fill="blue" stroke="black" points="232.61,-445.14 232.02,-434.57 225.88,-443.2 232.61,-445.14"/>
</g>
<!-- flask_templating -->
<g id="node11" class="node">
<title>flask_templating</title><style>.edge>path:hover{stroke-width:8}</style>
<polygon fill="blue" stroke="black" points="84,-217 14.75,-217 14.75,-181 84,-181 84,-217"/>
<text text-anchor="middle" x="49.38" y="-202.25" font-family="Helvetica,sans-Serif" font-size="10.00" fill="white">flask.</text>
<text text-anchor="middle" x="49.38" y="-189.5" font-family="Helvetica,sans-Serif" font-size="10.00" fill="white">templating</text>
</g>
<!-- flask_app&#45;&gt;flask_templating -->
<g id="edge5" class="edge">
<title>flask_app&#45;&gt;flask_templating</title><style>.edge>path:hover{stroke-width:8}</style>
<path fill="none" stroke="black" d="M185.06,-530.44C157.68,-463.76 88.11,-294.32 60.71,-227.6"/>
<polygon fill="blue" stroke="black" points="181.68,-531.41 188.71,-539.33 188.15,-528.75 181.68,-531.41"/>
<polygon fill="blue" stroke="black" points="64.01,-226.42 56.97,-218.49 57.53,-229.07 64.01,-226.42"/>
</g>
<!-- flask_blueprints -->
<g id="node4" class="node">
<title>flask_blueprints</title><style>.edge>path:hover{stroke-width:8}</style>
<polygon fill="blue" stroke="black" points="309.75,-217 245,-217 245,-181 309.75,-181 309.75,-217"/>
<text text-anchor="middle" x="277.38" y="-202.25" font-family="Helvetica,sans-Serif" font-size="10.00" fill="white">flask.</text>
<text text-anchor="middle" x="277.38" y="-189.5" font-family="Helvetica,sans-Serif" font-size="10.00" fill="white">blueprints</text>
</g>
<!-- flask_blueprints&#45;&gt;flask -->
<g id="edge6" class="edge">
<title>flask_blueprints&#45;&gt;flask</title><style>.edge>path:hover{stroke-width:8}</style>
<path fill="none" stroke="black" d="M253.65,-180.7C241.76,-172.03 227.18,-161.4 214.24,-151.96"/>
<polygon fill="blue" stroke="black" points="216.53,-149.3 206.39,-146.24 212.41,-154.96 216.53,-149.3"/>
</g>
<!-- flask_config -->
<g id="node5" class="node">
<title>flask_config</title><style>.edge>path:hover{stroke-width:8}</style>
<ellipse fill="#53b6b6" stroke="black" cx="145.38" cy="-199" rx="43.75" ry="18"/>
<text text-anchor="middle" x="145.38" y="-195.88" font-family="Helvetica,sans-Serif" font-size="10.00" fill="#000000">flask.config</text>
</g>
<!-- flask_config&#45;&gt;flask -->
<g id="edge7" class="edge">
<title>flask_config&#45;&gt;flask</title><style>.edge>path:hover{stroke-width:8}</style>
<path fill="none" stroke="black" d="M154.09,-181.05C158.06,-173.35 162.85,-164.03 167.3,-155.36"/>
<polygon fill="#53b6b6" stroke="black" points="170.34,-157.11 171.8,-146.62 164.12,-153.91 170.34,-157.11"/>
</g>
<!-- flask_ctx&#45;&gt;flask -->
<g id="edge8" class="edge">
<title>flask_ctx&#45;&gt;flask</title><style>.edge>path:hover{stroke-width:8}</style>
<path fill="none" stroke="black" d="M358.96,-468.63C373.08,-455.93 389.33,-437.24 393.38,-416"/>
<path fill="none" stroke="black" d="M393.38,-414C405.2,-352.01 376.91,-332.92 393.38,-272"/>
</g>
<!-- flask_ctx&#45;&gt;flask_globals -->
<g id="edge10" class="edge">
<title>flask_ctx&#45;&gt;flask_globals</title><style>.edge>path:hover{stroke-width:8}</style>
<path fill="none" stroke="black" d="M302.31,-461.91C292.21,-454.77 281.16,-446.96 271.09,-439.83"/>
<polygon fill="blue" stroke="black" points="300.23,-464.73 310.42,-467.64 304.27,-459.01 300.23,-464.73"/>
<polygon fill="blue" stroke="black" points="273.21,-437.05 263.02,-434.13 269.17,-442.77 273.21,-437.05"/>
</g>
<!-- flask_globals&#45;&gt;flask -->
<g id="edge11" class="edge">
<title>flask_globals&#45;&gt;flask</title><style>.edge>path:hover{stroke-width:8}</style>
<path fill="none" stroke="black" d="M237.38,-342C239.52,-310.96 235.23,-303.04 237.38,-272"/>
<path fill="none" stroke="black" d="M237.38,-270C239.61,-237.72 221.87,-232.04 217.38,-200"/>
</g>
<!-- flask_globals&#45;&gt;flask_blueprints -->
<g id="edge13" class="edge">
<title>flask_globals&#45;&gt;flask_blueprints</title><style>.edge>path:hover{stroke-width:8}</style>
<path fill="none" stroke="black" d="M237.38,-270C238.46,-254.35 246.26,-238.99 254.68,-226.67"/>
<polygon fill="blue" stroke="black" points="257.44,-228.83 260.56,-218.7 251.81,-224.67 257.44,-228.83"/>
</g>
<!-- flask_helpers -->
<g id="node8" class="node">
<title>flask_helpers</title><style>.edge>path:hover{stroke-width:8}</style>
<polygon fill="blue" stroke="black" points="209.5,-289 131.25,-289 131.25,-253 209.5,-253 209.5,-289"/>
<text text-anchor="middle" x="170.38" y="-267.88" font-family="Helvetica,sans-Serif" font-size="10.00" fill="white">flask.helpers</text>
</g>
<!-- flask_globals&#45;&gt;flask_helpers -->
<g id="edge15" class="edge">
<title>flask_globals&#45;&gt;flask_helpers</title><style>.edge>path:hover{stroke-width:8}</style>
<path fill="none" stroke="black" d="M236.72,-396.72C236.33,-382.54 236.14,-361.94 237.38,-344"/>
<path fill="none" stroke="black" d="M237.38,-342C238.66,-323.52 226.43,-307.98 212.09,-296.28"/>
<polygon fill="blue" stroke="black" points="214.31,-293.57 204.2,-290.4 210.12,-299.18 214.31,-293.57"/>
</g>
<!-- flask_json -->
<g id="node9" class="node">
<title>flask_json</title><style>.edge>path:hover{stroke-width:8}</style>
<polygon fill="blue" stroke="black" points="365.63,-289 303.13,-289 303.13,-253 365.63,-253 365.63,-289"/>
<text text-anchor="middle" x="334.38" y="-267.88" font-family="Helvetica,sans-Serif" font-size="10.00" fill="white">flask.json</text>
</g>
<!-- flask_globals&#45;&gt;flask_json -->
<g id="edge16" class="edge">
<title>flask_globals&#45;&gt;flask_json</title><style>.edge>path:hover{stroke-width:8}</style>
<path fill="none" stroke="black" d="M237.38,-342C239.34,-313.63 266.96,-295.58 292.22,-284.93"/>
<polygon fill="blue" stroke="black" points="293.36,-288.24 301.41,-281.36 290.82,-281.72 293.36,-288.24"/>
</g>
<!-- flask_globals&#45;&gt;flask_templating -->
<g id="edge17" class="edge">
<title>flask_globals&#45;&gt;flask_templating</title><style>.edge>path:hover{stroke-width:8}</style>
<path fill="none" stroke="black" d="M221.06,-396.89C198.48,-373.07 156.61,-328.4 122.38,-289 104.3,-268.19 84.5,-243.96 70.09,-226.05"/>
<polygon fill="blue" stroke="black" points="73.02,-224.1 64.03,-218.48 67.56,-228.48 73.02,-224.1"/>
</g>
<!-- flask_wrappers -->
<g id="node12" class="node">
<title>flask_wrappers</title><style>.edge>path:hover{stroke-width:8}</style>
<polygon fill="blue" stroke="black" points="353,-361 265.75,-361 265.75,-325 353,-325 353,-361"/>
<text text-anchor="middle" x="309.38" y="-339.88" font-family="Helvetica,sans-Serif" font-size="10.00" fill="white">flask.wrappers</text>
</g>
<!-- flask_globals&#45;&gt;flask_wrappers -->
<g id="edge18" class="edge">
<title>flask_globals&#45;&gt;flask_wrappers</title><style>.edge>path:hover{stroke-width:8}</style>
<path fill="none" stroke="black" d="M263.4,-388.7C269.96,-382.32 277.01,-375.47 283.57,-369.09"/>
<polygon fill="blue" stroke="black" points="260.99,-386.16 256.26,-395.64 265.87,-391.18 260.99,-386.16"/>
<polygon fill="blue" stroke="black" points="285.72,-371.88 290.45,-362.4 280.84,-366.86 285.72,-371.88"/>
</g>
<!-- flask_helpers&#45;&gt;flask -->
<g id="edge19" class="edge">
<title>flask_helpers&#45;&gt;flask</title><style>.edge>path:hover{stroke-width:8}</style>
<path fill="none" stroke="black" d="M192.04,-252.69C205.69,-239.6 220.24,-220.44 217.38,-200"/>
<path fill="none" stroke="black" d="M217.38,-198C215.25,-182.77 208.03,-167.41 200.62,-154.97"/>
<polygon fill="blue" stroke="black" points="203.59,-153.12 195.27,-146.56 197.68,-156.87 203.59,-153.12"/>
</g>
<!-- flask_helpers&#45;&gt;flask_app -->
<g id="edge20" class="edge">
<title>flask_helpers&#45;&gt;flask_app</title><style>.edge>path:hover{stroke-width:8}</style>
<path fill="none" stroke="black" d="M171.94,-289.23C176.26,-336.74 188.38,-469.97 193.75,-529.1"/>
<polygon fill="blue" stroke="black" points="190.26,-529.39 194.65,-539.03 197.23,-528.76 190.26,-529.39"/>
</g>
<!-- flask_helpers&#45;&gt;flask_blueprints -->
<g id="edge21" class="edge">
<title>flask_helpers&#45;&gt;flask_blueprints</title><style>.edge>path:hover{stroke-width:8}</style>
<path fill="none" stroke="black" d="M197.1,-252.52C210.61,-243.68 227.18,-232.84 241.76,-223.3"/>
<polygon fill="blue" stroke="black" points="243.27,-226.49 249.73,-218.09 239.44,-220.63 243.27,-226.49"/>
</g>
<!-- flask_helpers&#45;&gt;flask_templating -->
<g id="edge22" class="edge">
<title>flask_helpers&#45;&gt;flask_templating</title><style>.edge>path:hover{stroke-width:8}</style>
<path fill="none" stroke="black" d="M140.16,-252.52C124.59,-243.51 105.42,-232.42 88.72,-222.76"/>
<polygon fill="blue" stroke="black" points="90.93,-220 80.52,-218.02 87.43,-226.06 90.93,-220"/>
</g>
<!-- flask_json&#45;&gt;flask -->
<g id="edge24" class="edge">
<title>flask_json&#45;&gt;flask</title><style>.edge>path:hover{stroke-width:8}</style>
<path fill="none" stroke="black" d="M365.02,-252.66C383.82,-239.56 402.66,-220.4 393.38,-200"/>
<path fill="none" stroke="black" d="M393.38,-198C378.69,-165.74 276.78,-143.85 219.77,-133.97"/>
<polygon fill="blue" stroke="black" points="220.61,-130.56 210.16,-132.35 219.44,-137.47 220.61,-130.56"/>
</g>
<!-- flask_signals -->
<g id="node10" class="node">
<title>flask_signals</title><style>.edge>path:hover{stroke-width:8}</style>
<ellipse fill="#22e7e7" stroke="black" cx="196.38" cy="-631" rx="46.96" ry="18"/>
<text text-anchor="middle" x="196.38" y="-627.88" font-family="Helvetica,sans-Serif" font-size="10.00" fill="#000000">flask.signals</text>
</g>
<!-- flask_signals&#45;&gt;flask -->
<g id="edge26" class="edge">
<title>flask_signals&#45;&gt;flask</title><style>.edge>path:hover{stroke-width:8}</style>
<path fill="none" stroke="black" d="M393.38,-558C419.21,-500.42 382.25,-478.12 393.38,-416"/>
</g>
<!-- flask_signals&#45;&gt;flask_app -->
<g id="edge27" class="edge">
<title>flask_signals&#45;&gt;flask_app</title><style>.edge>path:hover{stroke-width:8}</style>
<path fill="none" stroke="black" d="M196.38,-612.7C196.38,-605.41 196.38,-596.73 196.38,-588.54"/>
<polygon fill="#22e7e7" stroke="black" points="199.88,-588.62 196.38,-578.62 192.88,-588.62 199.88,-588.62"/>
</g>
<!-- flask_signals&#45;&gt;flask_ctx -->
<g id="edge28" class="edge">
<title>flask_signals&#45;&gt;flask_ctx</title><style>.edge>path:hover{stroke-width:8}</style>
<path fill="none" stroke="black" d="M243.61,-630.49C293.66,-628.01 368.79,-614.81 393.38,-560"/>
<path fill="none" stroke="black" d="M393.38,-558C401.05,-540.91 389.13,-524.51 374.24,-511.89"/>
<polygon fill="#22e7e7" stroke="black" points="376.5,-509.22 366.45,-505.85 372.2,-514.75 376.5,-509.22"/>
</g>
<!-- flask_signals&#45;&gt;flask_helpers -->
<g id="edge29" class="edge">
<title>flask_signals&#45;&gt;flask_helpers</title><style>.edge>path:hover{stroke-width:8}</style>
<path fill="none" stroke="black" d="M25.38,-414C11.61,-358.4 73.8,-316.15 121.03,-292.72"/>
<polygon fill="#22e7e7" stroke="black" points="122.28,-296 129.79,-288.52 119.26,-289.69 122.28,-296"/>
</g>
<!-- flask_signals&#45;&gt;flask_templating -->
<g id="edge30" class="edge">
<title>flask_signals&#45;&gt;flask_templating</title><style>.edge>path:hover{stroke-width:8}</style>
<path fill="none" stroke="black" d="M174.13,-614.68C131.36,-583.37 40.52,-507.25 25.38,-416"/>
<path fill="none" stroke="black" d="M25.38,-414C2.45,-350.34 23.94,-269.73 38.5,-227.96"/>
<polygon fill="#22e7e7" stroke="black" points="41.74,-229.27 41.86,-218.68 35.16,-226.88 41.74,-229.27"/>
</g>
<!-- flask_templating&#45;&gt;flask -->
<g id="edge31" class="edge">
<title>flask_templating&#45;&gt;flask</title><style>.edge>path:hover{stroke-width:8}</style>
<path fill="none" stroke="black" d="M82.35,-180.52C101.12,-170.56 124.69,-158.06 144.13,-147.75"/>
<polygon fill="blue" stroke="black" points="145.63,-150.92 152.82,-143.14 142.35,-144.74 145.63,-150.92"/>
</g>
<!-- flask_wrappers&#45;&gt;flask -->
<g id="edge33" class="edge">
<title>flask_wrappers&#45;&gt;flask</title><style>.edge>path:hover{stroke-width:8}</style>
<path fill="none" stroke="black" d="M346.62,-324.59C366.04,-312.96 387.04,-295.46 393.38,-272"/>
<path fill="none" stroke="black" d="M393.38,-270C401.5,-239.97 406.27,-228.31 393.38,-200"/>
</g>
<!-- flask_wrappers&#45;&gt;flask_app -->
<g id="edge34" class="edge">
<title>flask_wrappers&#45;&gt;flask_app</title><style>.edge>path:hover{stroke-width:8}</style>
<path fill="none" stroke="black" d="M307.68,-361.24C306.66,-372.52 305.44,-387.88 304.77,-402.77"/>
<polygon fill="blue" stroke="black" points="301.28,-402.37 304.43,-412.49 308.28,-402.62 301.28,-402.37"/>
<path fill="none" stroke="black" d="M304.38,-416C303.82,-470.2 253.55,-516.65 221.8,-540.63"/>
</g>
<!-- flask_wrappers&#45;&gt;flask_blueprints -->
<g id="edge35" class="edge">
<title>flask_wrappers&#45;&gt;flask_blueprints</title><style>.edge>path:hover{stroke-width:8}</style>
<path fill="none" stroke="black" d="M304.13,-324.91C301.06,-314.58 297.24,-301.1 294.38,-289 289.64,-268.97 285.31,-246.18 282.2,-228.67"/>
<polygon fill="blue" stroke="black" points="285.68,-228.23 280.51,-218.98 278.78,-229.43 285.68,-228.23"/>
</g>
<!-- flask_wrappers&#45;&gt;flask_ctx -->
<g id="edge36" class="edge">
<title>flask_wrappers&#45;&gt;flask_ctx</title><style>.edge>path:hover{stroke-width:8}</style>
<path fill="none" stroke="black" d="M304.38,-416C304.18,-435.24 314.33,-454.98 323.25,-468.58"/>
</g>
<!-- flask_wrappers&#45;&gt;flask_helpers -->
<g id="edge38" class="edge">
<title>flask_wrappers&#45;&gt;flask_helpers</title><style>.edge>path:hover{stroke-width:8}</style>
<path fill="none" stroke="black" d="M264.51,-319.41C248.58,-311.38 230.66,-302.36 214.76,-294.35"/>
<polygon fill="blue" stroke="black" points="262.8,-322.46 273.31,-323.84 265.95,-316.21 262.8,-322.46"/>
<polygon fill="blue" stroke="black" points="216.51,-291.31 206,-289.94 213.36,-297.57 216.51,-291.31"/>
</g>
<!-- flask_wrappers&#45;&gt;flask_json -->
<g id="edge39" class="edge">
<title>flask_wrappers&#45;&gt;flask_json</title><style>.edge>path:hover{stroke-width:8}</style>
<path fill="none" stroke="black" d="M319.34,-314.1C321.04,-309.34 322.8,-304.41 324.5,-299.66"/>
<polygon fill="blue" stroke="black" points="316.13,-312.68 316.07,-323.27 322.73,-315.03 316.13,-312.68"/>
<polygon fill="blue" stroke="black" points="327.69,-301.12 327.76,-290.53 321.1,-298.77 327.69,-301.12"/>
</g>
</g>
</svg>
